<svg width="62" height="64" viewBox="0 0 62 64" fill="none" xmlns="http://www.w3.org/2000/svg">
<g clip-path="url(#clip0_168_121)">
<path d="M33.9999 17.0001C33.9893 20.9934 32.5732 24.8554 30 27.9091C27.4268 30.9628 23.8608 33.0131 19.9272 33.7007C15.9935 34.3883 11.9434 33.6692 8.4869 31.6695C5.03041 29.6698 2.38818 26.5171 1.02351 22.7643C-0.34116 19.0114 -0.341171 14.8979 1.02348 11.1451C2.38813 7.39222 5.03034 4.23954 8.48682 2.23981C11.9433 0.240078 15.9934 -0.479051 19.9271 0.208511C23.8607 0.896073 27.4267 2.94644 29.9999 6.0001C32.5933 9.0777 34.0107 12.9755 33.9999 17.0001Z" fill="#F0C2C5"/>
<path d="M34 18.0002C34.04 17.3341 34.04 16.6663 34 16.0002H27C26.8671 13.2087 26.1301 10.4793 24.84 8.0002H31.45C31.0162 7.29895 30.5316 6.63049 30 6.0002H23.6C21.9789 3.6815 19.9245 1.69839 17.55 0.160197C17.3867 0.0526691 17.1955 -0.00463867 17 -0.00463867C16.8045 -0.00463867 16.6133 0.0526691 16.45 0.160197C14.0755 1.69839 12.0211 3.6815 10.4 6.0002H4.04997C3.51147 6.62982 3.02014 7.2983 2.57997 8.0002H9.18997C7.88521 10.4752 7.13774 13.2057 6.99997 16.0002H-2.62931e-05C-0.0400303 16.6663 -0.0400303 17.3341 -2.6295e-05 18.0002H6.99997C7.12844 20.7924 7.86564 23.5228 9.15997 26.0002H2.57997C3.02014 26.7021 3.51147 27.3706 4.04997 28.0002H10.4C12.0101 30.3109 14.0466 32.2931 16.4 33.8402C16.5633 33.9477 16.7545 34.005 16.95 34.005C17.1455 34.005 17.3367 33.9477 17.5 33.8402C19.8925 32.3071 21.9642 30.3237 23.6 28.0002H30C30.5385 27.3706 31.0298 26.7021 31.47 26.0002H24.81C26.1147 23.5252 26.8622 20.7947 27 18.0002H34ZM17 2.2102C18.5471 3.27422 19.9373 4.54998 21.13 6.0002H12.87C14.0627 4.54998 15.4529 3.27422 17 2.2102V2.2102ZM17 31.7902C15.4529 30.7262 14.0627 29.4504 12.87 28.0002H21.13C19.9373 29.4504 18.5471 30.7262 17 31.7902V31.7902ZM22.55 26.0002H11.45C9.97052 23.5834 9.12762 20.831 8.99997 18.0002H25C24.8723 20.831 24.0294 23.5834 22.55 26.0002V26.0002ZM8.99997 16.0002C9.11551 13.1729 9.94458 10.4208 11.41 8.0002H22.51C23.9999 10.4149 24.8563 13.1665 25 16.0002H8.99997Z" fill="#CD9998"/>
<path d="M34 17C34.0003 19.6605 33.3762 22.2839 32.1778 24.6592C30.9794 27.0346 29.2403 29.0955 27.1003 30.6761C24.9603 32.2568 22.4791 33.3132 19.8565 33.7602C17.2338 34.2073 14.5428 34.0325 12 33.25V14C12 12.9391 12.4214 11.9217 13.1716 11.1716C13.9217 10.4214 14.9391 10 16 10H32.48C33.4898 12.195 34.0085 14.5839 34 17V17Z" fill="#CD9998"/>
<path d="M58 22V62C58 62.5304 57.7893 63.0391 57.4142 63.4142C57.0391 63.7893 56.5304 64 56 64H16C15.4696 64 14.9609 63.7893 14.5858 63.4142C14.2107 63.0391 14 62.5304 14 62V14C14 13.4696 14.2107 12.9609 14.5858 12.5858C14.9609 12.2107 15.4696 12 16 12H48L58 22Z" fill="#F3F3F3"/>
<path d="M58 22H50C49.4696 22 48.9609 21.7893 48.5858 21.4142C48.2107 21.0391 48 20.5304 48 20V12L58 22Z" fill="#D9D9D9"/>
<path d="M58 40H14V60H58V40Z" fill="#D9D9D9"/>
<path d="M12 42H60C60.5304 42 61.0391 42.2107 61.4142 42.5858C61.7893 42.9609 62 43.4696 62 44V56C62 56.5304 61.7893 57.0391 61.4142 57.4142C61.0391 57.7893 60.5304 58 60 58H10V44C10 43.4696 10.2107 42.9609 10.5858 42.5858C10.9609 42.2107 11.4696 42 12 42Z" fill="#AA706A"/>
<path d="M10 58L14 62V58H10Z" fill="#CD9998"/>
<path d="M19 55C18.7348 55 18.4804 54.8946 18.2929 54.7071C18.1054 54.5196 18 54.2652 18 54V46C18 45.7348 18.1054 45.4804 18.2929 45.2929C18.4804 45.1054 18.7348 45 19 45C19.2652 45 19.5196 45.1054 19.7071 45.2929C19.8946 45.4804 20 45.7348 20 46V54C20 54.2652 19.8946 54.5196 19.7071 54.7071C19.5196 54.8946 19.2652 55 19 55Z" fill="#CD9998"/>
<path d="M25 55C24.7348 55 24.4804 54.8946 24.2929 54.7071C24.1054 54.5196 24 54.2652 24 54V46C24 45.7348 24.1054 45.4804 24.2929 45.2929C24.4804 45.1054 24.7348 45 25 45C25.2652 45 25.5196 45.1054 25.7071 45.2929C25.8946 45.4804 26 45.7348 26 46V54C26 54.2652 25.8946 54.5196 25.7071 54.7071C25.5196 54.8946 25.2652 55 25 55Z" fill="#CD9998"/>
<path d="M25 51H19C18.7348 51 18.4804 50.8946 18.2929 50.7071C18.1054 50.5196 18 50.2652 18 50C18 49.7348 18.1054 49.4804 18.2929 49.2929C18.4804 49.1054 18.7348 49 19 49H25C25.2652 49 25.5196 49.1054 25.7071 49.2929C25.8946 49.4804 26 49.7348 26 50C26 50.2652 25.8946 50.5196 25.7071 50.7071C25.5196 50.8946 25.2652 51 25 51Z" fill="#CD9998"/>
<path d="M35 47H29C28.7348 47 28.4804 46.8946 28.2929 46.7071C28.1054 46.5196 28 46.2652 28 46C28 45.7348 28.1054 45.4804 28.2929 45.2929C28.4804 45.1054 28.7348 45 29 45H35C35.2652 45 35.5196 45.1054 35.7071 45.2929C35.8946 45.4804 36 45.7348 36 46C36 46.2652 35.8946 46.5196 35.7071 46.7071C35.5196 46.8946 35.2652 47 35 47Z" fill="#CD9998"/>
<path d="M32 55C31.7348 55 31.4804 54.8946 31.2929 54.7071C31.1054 54.5196 31 54.2652 31 54V46C31 45.7348 31.1054 45.4804 31.2929 45.2929C31.4804 45.1054 31.7348 45 32 45C32.2652 45 32.5196 45.1054 32.7071 45.2929C32.8946 45.4804 33 45.7348 33 46V54C33 54.2652 32.8946 54.5196 32.7071 54.7071C32.5196 54.8946 32.2652 55 32 55Z" fill="#CD9998"/>
<path d="M45 55.0002C44.7348 55.0002 44.4804 54.8948 44.2929 54.7073C44.1054 54.5198 44 54.2654 44 54.0002V48.4102L42.71 49.7102C42.6171 49.8039 42.5065 49.8783 42.3846 49.9291C42.2627 49.9799 42.132 50.006 42 50.006C41.868 50.006 41.7373 49.9799 41.6154 49.9291C41.4936 49.8783 41.383 49.8039 41.29 49.7102L40 48.4102V54.0002C40 54.2654 39.8947 54.5198 39.7071 54.7073C39.5196 54.8948 39.2652 55.0002 39 55.0002C38.7348 55.0002 38.4804 54.8948 38.2929 54.7073C38.1054 54.5198 38 54.2654 38 54.0002V46.0002C37.9989 45.8016 38.0569 45.6071 38.1667 45.4416C38.2765 45.2761 38.4331 45.147 38.6165 45.0708C38.8 44.9947 39.002 44.9749 39.1967 45.0139C39.3914 45.053 39.5701 45.1492 39.71 45.2902L42 47.5902L44.29 45.2902C44.4299 45.1492 44.6086 45.053 44.8033 45.0139C44.9981 44.9749 45.2001 44.9947 45.3835 45.0708C45.5669 45.147 45.7235 45.2761 45.8333 45.4416C45.9431 45.6071 46.0012 45.8016 46 46.0002V54.0002C46 54.2654 45.8947 54.5198 45.7071 54.7073C45.5196 54.8948 45.2652 55.0002 45 55.0002Z" fill="#CD9998"/>
<path d="M53 55H49C48.7348 55 48.4804 54.8946 48.2929 54.7071C48.1054 54.5196 48 54.2652 48 54V46C48 45.7348 48.1054 45.4804 48.2929 45.2929C48.4804 45.1054 48.7348 45 49 45C49.2652 45 49.5196 45.1054 49.7071 45.2929C49.8946 45.4804 50 45.7348 50 46V53H53C53.2652 53 53.5196 53.1054 53.7071 53.2929C53.8946 53.4804 54 53.7348 54 54C54 54.2652 53.8946 54.5196 53.7071 54.7071C53.5196 54.8946 53.2652 55 53 55Z" fill="#CD9998"/>
<path d="M22 27C21.8448 27 21.6916 26.9639 21.5528 26.8944C21.4139 26.825 21.2931 26.7242 21.2 26.6L18.2 22.6C18.0702 22.4269 18 22.2164 18 22C18 21.7836 18.0702 21.5731 18.2 21.4L21.2 17.4C21.3591 17.1878 21.596 17.0476 21.8586 17.0101C22.1211 16.9725 22.3878 17.0409 22.6 17.2C22.8122 17.3591 22.9524 17.596 22.99 17.8586C23.0275 18.1211 22.9591 18.3878 22.8 18.6L20.25 22L22.8 25.4C22.9114 25.5486 22.9793 25.7252 22.996 25.9102C23.0126 26.0952 22.9775 26.2811 22.8944 26.4472C22.8114 26.6133 22.6837 26.753 22.5257 26.8507C22.3678 26.9483 22.1857 27 22 27Z" fill="#F0C2C5"/>
<path d="M32 27.0001C31.8013 27.0012 31.6069 26.9432 31.4413 26.8334C31.2758 26.7236 31.1468 26.567 31.0706 26.3835C30.9944 26.2001 30.9746 25.9981 31.0137 25.8034C31.0527 25.6086 31.1489 25.4299 31.29 25.2901L34.63 22.0001L31.75 18.7101C31.6564 18.6127 31.5836 18.4974 31.5358 18.3712C31.4881 18.2449 31.4664 18.1103 31.472 17.9754C31.4777 17.8405 31.5106 17.7082 31.5688 17.5864C31.627 17.4646 31.7092 17.3558 31.8105 17.2666C31.9119 17.1774 32.0302 17.1097 32.1584 17.0675C32.2867 17.0253 32.4221 17.0095 32.5566 17.021C32.6911 17.0325 32.8219 17.0712 32.941 17.1346C33.0602 17.198 33.1653 17.2849 33.25 17.3901L36.75 21.3901C36.9243 21.5755 37.0214 21.8205 37.0214 22.0751C37.0214 22.3296 36.9243 22.5746 36.75 22.7601L32.75 26.7601C32.6477 26.8487 32.5285 26.9157 32.3996 26.957C32.2707 26.9982 32.1347 27.0129 32 27.0001V27.0001Z" fill="#F0C2C5"/>
<path d="M26 28C25.85 28.0031 25.7013 27.9723 25.5648 27.9101C25.4283 27.8478 25.3076 27.7557 25.2115 27.6404C25.1155 27.5252 25.0466 27.3898 25.01 27.2443C24.9734 27.0989 24.9699 26.947 25 26.8L27 16.8C27.0262 16.6687 27.0781 16.5438 27.1526 16.4326C27.2272 16.3213 27.3229 16.2258 27.4343 16.1515C27.6593 16.0015 27.9348 15.947 28.2 16C28.3313 16.0263 28.4562 16.0782 28.5674 16.1527C28.6787 16.2272 28.7742 16.3229 28.8485 16.4343C28.9228 16.5458 28.9744 16.6707 29.0004 16.8021C29.0264 16.9335 29.0262 17.0687 29 17.2L27 27.2C26.9532 27.4293 26.8276 27.6349 26.6448 27.7811C26.4621 27.9273 26.2339 28.0048 26 28Z" fill="#F0C2C5"/>
<path d="M26 30H18V32H26V30Z" fill="#D9D9D9"/>
<path d="M26 34H18V36H26V34Z" fill="#D9D9D9"/>
<path d="M46 30H30V32H46V30Z" fill="#D9D9D9"/>
<path d="M46 34H30V36H46V34Z" fill="#D9D9D9"/>
</g>
<defs>
<clipPath id="clip0_168_121">
<rect width="62" height="64" fill="white"/>
</clipPath>
</defs>
</svg>
