<svg width="56" height="64" viewBox="0 0 56 64" fill="none" xmlns="http://www.w3.org/2000/svg">
<path d="M48 28.0001C48.0039 24.6255 47.1538 21.3048 45.5289 18.3471C43.9041 15.3894 41.5572 12.891 38.7069 11.0844C35.8566 9.27782 32.5956 8.22183 29.2273 8.01475C25.8591 7.80766 22.4932 8.45622 19.443 9.90004C16.3929 11.3439 13.7577 13.536 11.7827 16.2723C9.8078 19.0087 8.55735 22.2003 8.14783 25.5499C7.7383 28.8996 8.183 32.2984 9.44053 35.43C10.6981 38.5615 12.7275 41.324 15.34 43.4601C18.0983 45.7304 19.9852 48.8858 20.68 52.3901V52.3901C20.7714 52.8505 21.0219 53.264 21.3875 53.5584C21.7532 53.8527 22.2107 54.0091 22.68 54.0001H33.36C33.8293 54.0091 34.2868 53.8527 34.6524 53.5584C35.0181 53.264 35.2685 52.8505 35.36 52.3901C36.0473 48.8957 37.9236 45.7473 40.67 43.4801C42.9678 41.6088 44.8184 39.2478 46.0866 36.5695C47.3548 33.8912 48.0085 30.9634 48 28.0001V28.0001Z" fill="#F0C2C5"/>
<path d="M28 64C26.4087 64 24.8826 63.3679 23.7574 62.2426C22.6321 61.1174 22 59.5913 22 58V54H34V58C34 59.5913 33.3679 61.1174 32.2426 62.2426C31.1174 63.3679 29.5913 64 28 64V64Z" fill="#D9D9D9"/>
<path d="M28 6C27.7348 6 27.4804 5.89464 27.2929 5.70711C27.1054 5.51957 27 5.26522 27 5V1C27 0.734784 27.1054 0.48043 27.2929 0.292893C27.4804 0.105357 27.7348 0 28 0C28.2652 0 28.5196 0.105357 28.7071 0.292893C28.8946 0.48043 29 0.734784 29 1V5C29 5.26522 28.8946 5.51957 28.7071 5.70711C28.5196 5.89464 28.2652 6 28 6Z" fill="#F0C2C5"/>
<path d="M12.44 12.4401C12.2526 12.6263 11.9992 12.7309 11.735 12.7309C11.4708 12.7309 11.2173 12.6263 11.03 12.4401L8.19998 9.6201C8.01167 9.43179 7.90588 9.1764 7.90588 8.9101C7.90588 8.6438 8.01167 8.3884 8.19998 8.2001C8.38828 8.01179 8.64367 7.90601 8.90998 7.90601C9.17628 7.90601 9.43167 8.01179 9.61998 8.2001L12.44 11.0001C12.5368 11.0934 12.6137 11.2052 12.6663 11.3289C12.7189 11.4526 12.746 11.5857 12.746 11.7201C12.746 11.8545 12.7189 11.9876 12.6663 12.1113C12.6137 12.235 12.5368 12.3468 12.44 12.4401Z" fill="#F0C2C5"/>
<path d="M6 28C6 28.2652 5.89464 28.5196 5.70711 28.7071C5.51957 28.8946 5.26522 29 5 29H1C0.734784 29 0.48043 28.8946 0.292893 28.7071C0.105357 28.5196 0 28.2652 0 28C0 27.7348 0.105357 27.4804 0.292893 27.2929C0.48043 27.1054 0.734784 27 1 27H5C5.26522 27 5.51957 27.1054 5.70711 27.2929C5.89464 27.4804 6 27.7348 6 28Z" fill="#F0C2C5"/>
<path d="M12.44 43.5599C12.6262 43.7473 12.7308 44.0007 12.7308 44.2649C12.7308 44.5291 12.6262 44.7826 12.44 44.9699L9.61998 47.7999C9.52674 47.8932 9.41605 47.9671 9.29422 48.0176C9.1724 48.068 9.04183 48.094 8.90998 48.094C8.77812 48.094 8.64755 48.068 8.52573 48.0176C8.4039 47.9671 8.29321 47.8932 8.19998 47.7999C8.10674 47.7067 8.03278 47.596 7.98232 47.4742C7.93186 47.3524 7.90588 47.2218 7.90588 47.0899C7.90588 46.9581 7.93186 46.8275 7.98232 46.7057C8.03278 46.5839 8.10674 46.4732 8.19998 46.3799L11 43.5599C11.0933 43.4632 11.2051 43.3862 11.3288 43.3336C11.4525 43.281 11.5856 43.2539 11.72 43.2539C11.8544 43.2539 11.9874 43.281 12.1111 43.3336C12.2349 43.3862 12.3467 43.4632 12.44 43.5599Z" fill="#F0C2C5"/>
<path d="M43.5601 43.5601C43.7474 43.3738 44.0009 43.2693 44.2651 43.2693C44.5292 43.2693 44.7827 43.3738 44.9701 43.5601L47.8001 46.3801C47.8933 46.4733 47.9673 46.584 48.0177 46.7058C48.0682 46.8277 48.0941 46.9582 48.0941 47.0901C48.0941 47.2219 48.0682 47.3525 48.0177 47.4743C47.9673 47.5962 47.8933 47.7068 47.8001 47.8001C47.7068 47.8933 47.5961 47.9673 47.4743 48.0177C47.3525 48.0682 47.2219 48.0942 47.0901 48.0942C46.9582 48.0942 46.8276 48.0682 46.7058 48.0177C46.584 47.9673 46.4733 47.8933 46.3801 47.8001L43.5601 45.0001C43.4633 44.9068 43.3863 44.795 43.3337 44.6712C43.2811 44.5475 43.254 44.4145 43.254 44.2801C43.254 44.1457 43.2811 44.0126 43.3337 43.8889C43.3863 43.7652 43.4633 43.6534 43.5601 43.5601Z" fill="#F0C2C5"/>
<path d="M50 28C50 27.7348 50.1054 27.4804 50.2929 27.2929C50.4804 27.1054 50.7348 27 51 27H55C55.2652 27 55.5196 27.1054 55.7071 27.2929C55.8946 27.4804 56 27.7348 56 28C56 28.2652 55.8946 28.5196 55.7071 28.7071C55.5196 28.8946 55.2652 29 55 29H51C50.7348 29 50.4804 28.8946 50.2929 28.7071C50.1054 28.5196 50 28.2652 50 28Z" fill="#F0C2C5"/>
<path d="M43.56 12.4401C43.3737 12.2527 43.2692 11.9993 43.2692 11.7351C43.2692 11.4709 43.3737 11.2175 43.56 11.0301L46.38 8.2001C46.4732 8.10686 46.5839 8.0329 46.7057 7.98244C46.8275 7.93198 46.9581 7.90601 47.09 7.90601C47.2218 7.90601 47.3524 7.93198 47.4742 7.98244C47.596 8.0329 47.7067 8.10686 47.8 8.2001C47.8932 8.29334 47.9672 8.40403 48.0176 8.52585C48.0681 8.64767 48.0941 8.77824 48.0941 8.9101C48.0941 9.04196 48.0681 9.17252 48.0176 9.29435C47.9672 9.41617 47.8932 9.52686 47.8 9.6201L45 12.4401C44.9067 12.5369 44.7948 12.6139 44.6711 12.6664C44.5474 12.719 44.4144 12.7461 44.28 12.7461C44.1455 12.7461 44.0125 12.719 43.8888 12.6664C43.7651 12.6139 43.6532 12.5369 43.56 12.4401Z" fill="#F0C2C5"/>
<path d="M35 58H21C20.7348 58 20.4804 57.8946 20.2929 57.7071C20.1054 57.5196 20 57.2652 20 57C20 56.7348 20.1054 56.4804 20.2929 56.2929C20.4804 56.1054 20.7348 56 21 56H35C35.2652 56 35.5196 56.1054 35.7071 56.2929C35.8946 56.4804 36 56.7348 36 57C36 57.2652 35.8946 57.5196 35.7071 57.7071C35.5196 57.8946 35.2652 58 35 58Z" fill="#C8C8C8"/>
<path d="M34 62H22C21.7348 62 21.4804 61.8946 21.2929 61.7071C21.1054 61.5196 21 61.2652 21 61C21 60.7348 21.1054 60.4804 21.2929 60.2929C21.4804 60.1054 21.7348 60 22 60H34C34.2652 60 34.5196 60.1054 34.7071 60.2929C34.8946 60.4804 35 60.7348 35 61C35 61.2652 34.8946 61.5196 34.7071 61.7071C34.5196 61.8946 34.2652 62 34 62Z" fill="#C8C8C8"/>
<path d="M28 44C36.8366 44 44 36.8366 44 28C44 19.1634 36.8366 12 28 12C19.1634 12 12 19.1634 12 28C12 36.8366 19.1634 44 28 44Z" fill="#F3F3F3"/>
<path d="M42 29.62V26.38C42 26.014 41.8546 25.663 41.5958 25.4042C41.337 25.1454 40.986 25 40.62 25C40.3411 25.0008 40.0688 24.9158 39.8398 24.7566C39.6109 24.5974 39.4364 24.3717 39.34 24.11C39.1811 23.641 38.9906 23.1833 38.77 22.74C38.6544 22.4836 38.6193 22.1982 38.6693 21.9215C38.7193 21.6448 38.852 21.3897 39.05 21.19C39.1788 21.0634 39.2811 20.9125 39.3509 20.7459C39.4208 20.5794 39.4567 20.4006 39.4567 20.22C39.4567 20.0394 39.4208 19.8606 39.3509 19.6941C39.2811 19.5275 39.1788 19.3766 39.05 19.25L36.75 17C36.6234 16.8712 36.4725 16.7689 36.3059 16.6991C36.1394 16.6292 35.9606 16.5933 35.78 16.5933C35.5994 16.5933 35.4206 16.6292 35.2541 16.6991C35.0875 16.7689 34.9366 16.8712 34.81 17C34.6111 17.1992 34.3559 17.3328 34.0789 17.3829C33.8018 17.4329 33.5161 17.397 33.26 17.28C32.8167 17.0594 32.359 16.8689 31.89 16.71C31.621 16.6096 31.3903 16.4271 31.2306 16.1885C31.0709 15.9498 30.9902 15.667 31 15.38C31 15.014 30.8546 14.663 30.5958 14.4042C30.337 14.1454 29.986 14 29.62 14H26.38C26.014 14 25.663 14.1454 25.4042 14.4042C25.1454 14.663 25 15.014 25 15.38C25.0008 15.6589 24.9158 15.9312 24.7566 16.1602C24.5974 16.3891 24.3717 16.5636 24.11 16.66C23.641 16.8189 23.1833 17.0094 22.74 17.23C22.4885 17.352 22.206 17.3953 21.9295 17.3542C21.653 17.3132 21.3953 17.1898 21.19 17C21.0634 16.8712 20.9125 16.7689 20.7459 16.6991C20.5794 16.6292 20.4006 16.5933 20.22 16.5933C20.0394 16.5933 19.8606 16.6292 19.6941 16.6991C19.5275 16.7689 19.3766 16.8712 19.25 17L17 19.25C16.8712 19.3766 16.7689 19.5275 16.6991 19.6941C16.6292 19.8606 16.5933 20.0394 16.5933 20.22C16.5933 20.4006 16.6292 20.5794 16.6991 20.7459C16.7689 20.9125 16.8712 21.0634 17 21.19C17.1992 21.389 17.3328 21.6441 17.3829 21.9211C17.4329 22.1982 17.397 22.4839 17.28 22.74C17.0594 23.1833 16.8689 23.641 16.71 24.11C16.6124 24.3709 16.4376 24.5958 16.2089 24.7548C15.9803 24.9138 15.7085 24.9994 15.43 25C15.2446 24.9933 15.0598 25.024 14.8865 25.0903C14.7133 25.1567 14.5552 25.2573 14.4217 25.3861C14.2882 25.5149 14.1821 25.6693 14.1096 25.8401C14.0372 26.0109 13.9999 26.1945 14 26.38V29.62C14 29.986 14.1454 30.337 14.4042 30.5958C14.663 30.8546 15.014 31 15.38 31C15.6589 30.9992 15.9312 31.0842 16.1602 31.2434C16.3891 31.4026 16.5636 31.6283 16.66 31.89C16.8189 32.359 17.0094 32.8167 17.23 33.26C17.352 33.5115 17.3953 33.794 17.3542 34.0705C17.3132 34.347 17.1898 34.6047 17 34.81C16.8712 34.9366 16.7689 35.0875 16.6991 35.2541C16.6292 35.4206 16.5933 35.5994 16.5933 35.78C16.5933 35.9606 16.6292 36.1394 16.6991 36.3059C16.7689 36.4725 16.8712 36.6234 17 36.75L19.3 39.05C19.4266 39.1788 19.5775 39.2811 19.7441 39.3509C19.9106 39.4208 20.0894 39.4567 20.27 39.4567C20.4506 39.4567 20.6294 39.4208 20.7959 39.3509C20.9625 39.2811 21.1134 39.1788 21.24 39.05C21.4389 38.8508 21.6941 38.7172 21.9711 38.6671C22.2482 38.6171 22.5339 38.653 22.79 38.77C23.2333 38.9906 23.691 39.1811 24.16 39.34C24.4115 39.4455 24.6258 39.6237 24.7755 39.8517C24.9251 40.0797 25.0033 40.3473 25 40.62C25 40.986 25.1454 41.337 25.4042 41.5958C25.663 41.8546 26.014 42 26.38 42H29.62C29.986 42 30.337 41.8546 30.5958 41.5958C30.8546 41.337 31 40.986 31 40.62C30.9992 40.3411 31.0842 40.0688 31.2434 39.8398C31.4026 39.6109 31.6283 39.4364 31.89 39.34C32.359 39.1811 32.8167 38.9906 33.26 38.77C33.5164 38.6544 33.8018 38.6193 34.0785 38.6693C34.3552 38.7193 34.6103 38.852 34.81 39.05C34.9366 39.1788 35.0875 39.2811 35.2541 39.3509C35.4206 39.4208 35.5994 39.4567 35.78 39.4567C35.9606 39.4567 36.1394 39.4208 36.3059 39.3509C36.4725 39.2811 36.6234 39.1788 36.75 39.05L39.05 36.75C39.1788 36.6234 39.2811 36.4725 39.3509 36.3059C39.4208 36.1394 39.4567 35.9606 39.4567 35.78C39.4567 35.5994 39.4208 35.4206 39.3509 35.2541C39.2811 35.0875 39.1788 34.9366 39.05 34.81C38.8508 34.6111 38.7172 34.3559 38.6671 34.0789C38.6171 33.8018 38.653 33.5161 38.77 33.26C38.9906 32.8167 39.1811 32.359 39.34 31.89C39.4376 31.6291 39.6124 31.4042 39.8411 31.2452C40.0697 31.0862 40.3415 31.0006 40.62 31C40.986 31 41.337 30.8546 41.5958 30.5958C41.8546 30.337 42 29.986 42 29.62V29.62Z" fill="#AA706A"/>
<path d="M28 37C32.9706 37 37 32.9706 37 28C37 23.0294 32.9706 19 28 19C23.0294 19 19 23.0294 19 28C19 32.9706 23.0294 37 28 37Z" fill="#CD9998"/>
<path d="M23.9999 30.9999C23.4599 30.9999 23.4299 30.8499 21.2899 28.7099C21.1962 28.617 21.1218 28.5064 21.071 28.3845C21.0203 28.2627 20.9941 28.132 20.9941 27.9999C20.9941 27.8679 21.0203 27.7372 21.071 27.6154C21.1218 27.4935 21.1962 27.3829 21.2899 27.2899L23.2899 25.2899C23.4782 25.1016 23.7336 24.9958 23.9999 24.9958C24.2662 24.9958 24.5216 25.1016 24.7099 25.2899C24.8982 25.4782 25.004 25.7336 25.004 25.9999C25.004 26.2662 24.8982 26.5216 24.7099 26.7099L23.4099 27.9999L24.7099 29.2899C24.851 29.4298 24.9471 29.6085 24.9862 29.8033C25.0253 29.998 25.0055 30.2 24.9293 30.3834C24.8531 30.5669 24.7241 30.7235 24.5586 30.8333C24.393 30.9431 24.1986 31.0011 23.9999 30.9999Z" fill="white"/>
<path d="M32 30.9999C31.8013 31.0011 31.6069 30.9431 31.4413 30.8333C31.2758 30.7235 31.1468 30.5669 31.0706 30.3834C30.9944 30.2 30.9746 29.998 31.0137 29.8033C31.0527 29.6085 31.1489 29.4298 31.29 29.2899L32.59 27.9999L31.29 26.7099C31.1017 26.5216 30.9959 26.2662 30.9959 25.9999C30.9959 25.7336 31.1017 25.4782 31.29 25.2899C31.4783 25.1016 31.7337 24.9958 32 24.9958C32.2663 24.9958 32.5217 25.1016 32.71 25.2899L34.71 27.2899C34.8037 27.3829 34.8781 27.4935 34.9288 27.6154C34.9796 27.7372 35.0058 27.8679 35.0058 27.9999C35.0058 28.132 34.9796 28.2627 34.9288 28.3845C34.8781 28.5064 34.8037 28.617 34.71 28.7099C32.53 30.8899 32.54 30.9999 32 30.9999Z" fill="white"/>
<path d="M27 33C26.8458 33.0045 26.6927 32.9733 26.5526 32.9088C26.4124 32.8443 26.2891 32.7483 26.1923 32.6282C26.0955 32.5081 26.0277 32.3672 25.9944 32.2166C25.961 32.066 25.9629 31.9097 26 31.76L28 23.76C28.0273 23.6282 28.0808 23.5033 28.1575 23.3927C28.2342 23.2821 28.3324 23.1881 28.4463 23.1163C28.5601 23.0446 28.6873 22.9966 28.8202 22.9751C28.9531 22.9537 29.0889 22.9594 29.2195 22.9917C29.3502 23.024 29.4729 23.0824 29.5805 23.1633C29.688 23.2442 29.7781 23.3459 29.8454 23.4625C29.9127 23.5791 29.9558 23.708 29.972 23.8416C29.9883 23.9752 29.9774 24.1107 29.94 24.24L27.94 32.24C27.8878 32.4519 27.7676 32.6409 27.5979 32.7781C27.4281 32.9153 27.2182 32.9933 27 33Z" fill="white"/>
</svg>
