<svg width="64" height="64" viewBox="0 0 64 64" fill="none" xmlns="http://www.w3.org/2000/svg">
<path d="M62 19V58H2V19C2 18.2044 2.31607 17.4413 2.87868 16.8787C3.44129 16.3161 4.20435 16 5 16H59C59.7956 16 60.5587 16.3161 61.1213 16.8787C61.6839 17.4413 62 18.2044 62 19V19Z" fill="#CD9998"/>
<path d="M1 58H63C63.2652 58 63.5196 58.1054 63.7071 58.2929C63.8946 58.4804 64 58.7348 64 59V61C64 61.7956 63.6839 62.5587 63.1213 63.1213C62.5587 63.6839 61.7956 64 61 64H3C2.20435 64 1.44129 63.6839 0.87868 63.1213C0.31607 62.5587 0 61.7956 0 61L0 59C0 58.7348 0.105357 58.4804 0.292893 58.2929C0.48043 58.1054 0.734784 58 1 58V58Z" fill="#AA706A"/>
<path d="M60 19V23H20L16 18H59C59.2652 18 59.5196 18.1054 59.7071 18.2929C59.8946 18.4804 60 18.7348 60 19Z" fill="#AA706A"/>
<path d="M60 23V56H4V19C4 18.7348 4.10536 18.4804 4.29289 18.2929C4.48043 18.1054 4.73478 18 5 18H19.08C19.6792 18.0004 20.2707 18.1354 20.8107 18.395C21.3507 18.6546 21.8255 19.0323 22.2 19.5C23.75 21.44 23.84 21.56 23.95 21.67C24.3276 22.0912 24.7902 22.4275 25.3073 22.6568C25.8245 22.8861 26.3843 23.003 26.95 23H60Z" fill="white"/>
<path d="M13 45C12.7348 45 12.4804 44.8946 12.2929 44.7071C12.1054 44.5196 12 44.2652 12 44V31.5C12 30.5685 12.2169 29.6499 12.6334 28.8167C13.05 27.9836 13.6548 27.2589 14.4 26.7L20.4 22.2C20.5486 22.0886 20.7252 22.0207 20.9102 22.004C21.0952 21.9874 21.2811 22.0225 21.4472 22.1056C21.6133 22.1886 21.753 22.3163 21.8507 22.4743C21.9483 22.6322 22 22.8143 22 23V39C22.0003 39.1699 21.9574 39.3372 21.8751 39.4859C21.7929 39.6346 21.6741 39.7599 21.53 39.85C12.82 45.29 13.41 45 13 45Z" fill="#F0C2C5"/>
<path d="M50.47 44.85L42.47 39.85C42.3259 39.7599 42.2071 39.6346 42.1249 39.4859C42.0426 39.3372 41.9997 39.1699 42 39V23C42 22.8143 42.0517 22.6322 42.1494 22.4743C42.247 22.3163 42.3867 22.1886 42.5528 22.1056C42.7189 22.0225 42.9048 21.9874 43.0898 22.004C43.2748 22.0207 43.4514 22.0886 43.6 22.2L49.6 26.7C50.3452 27.2589 50.95 27.9836 51.3666 28.8167C51.7831 29.6499 52 30.5685 52 31.5V44C52.0004 44.1787 51.9528 44.3542 51.8624 44.5083C51.7719 44.6624 51.6418 44.7894 51.4856 44.8762C51.3295 44.9629 51.1529 45.0063 50.9743 45.0017C50.7956 44.9971 50.6215 44.9447 50.47 44.85Z" fill="#F0C2C5"/>
<path d="M39 60H25C24.4696 60 23.9609 59.7893 23.5858 59.4142C23.2107 59.0391 23 58.5304 23 58H41C41 58.5304 40.7893 59.0391 40.4142 59.4142C40.0391 59.7893 39.5304 60 39 60Z" fill="#F3F3F3"/>
<path d="M44 43.0001H20C19.7348 43.0001 19.4804 42.8947 19.2929 42.7072C19.1054 42.5196 19 42.2653 19 42.0001V21.8901C19.0088 17.49 20.1667 13.1686 22.3592 9.35369C24.5517 5.53878 27.7026 2.36274 31.5 0.140078C31.652 0.0523098 31.8245 0.00610352 32 0.00610352C32.1755 0.00610352 32.348 0.0523098 32.5 0.140078C36.2974 2.36274 39.4483 5.53878 41.6408 9.35369C43.8333 13.1686 44.9912 17.49 45 21.8901V42.0001C45 42.2653 44.8946 42.5196 44.7071 42.7072C44.5196 42.8947 44.2652 43.0001 44 43.0001Z" fill="#CD9998"/>
<path d="M41 45H23C22.4696 45 21.9609 44.7893 21.5858 44.4142C21.2107 44.0391 21 43.5304 21 43H43C43 43.5304 42.7893 44.0391 42.4142 44.4142C42.0391 44.7893 41.5304 45 41 45Z" fill="#AA706A"/>
<path d="M56 55V56H8V55C8 53.9391 8.42143 52.9217 9.17157 52.1716C9.92172 51.4214 10.9391 51 12 51H16C16 49.9391 16.4214 48.9217 17.1716 48.1716C17.9217 47.4214 18.9391 47 20 47H24C24.5304 47 25.0391 46.7893 25.4142 46.4142C25.7893 46.0391 26 45.5304 26 45H38C38 45.5304 38.2107 46.0391 38.5858 46.4142C38.9609 46.7893 39.4696 47 40 47H44C45.0609 47 46.0783 47.4214 46.8284 48.1716C47.5786 48.9217 48 49.9391 48 51H52C53.0609 51 54.0783 51.4214 54.8284 52.1716C55.5786 52.9217 56 53.9391 56 55Z" fill="#D9D9D9"/>
<path d="M32 24C35.866 24 39 20.866 39 17C39 13.134 35.866 10 32 10C28.134 10 25 13.134 25 17C25 20.866 28.134 24 32 24Z" fill="#AA706A"/>
<path d="M32 22C34.7614 22 37 19.7614 37 17C37 14.2386 34.7614 12 32 12C29.2386 12 27 14.2386 27 17C27 19.7614 29.2386 22 32 22Z" fill="#AA706A"/>
<path d="M26.9999 37.0002C26.8683 37.0009 26.7379 36.9757 26.616 36.926C26.4942 36.8762 26.3834 36.8029 26.2899 36.7102L23.2899 33.7102C23.1962 33.6172 23.1218 33.5066 23.071 33.3848C23.0203 33.2629 22.9941 33.1322 22.9941 33.0002C22.9941 32.8682 23.0203 32.7375 23.071 32.6156C23.1218 32.4938 23.1962 32.3831 23.2899 32.2902L26.2899 29.2902C26.4782 29.1019 26.7336 28.9961 26.9999 28.9961C27.2662 28.9961 27.5216 29.1019 27.7099 29.2902C27.8982 29.4785 28.004 29.7339 28.004 30.0002C28.004 30.2665 27.8982 30.5219 27.7099 30.7102L25.4099 33.0002L27.7099 35.2902C27.851 35.4301 27.9471 35.6088 27.9862 35.8035C28.0253 35.9983 28.0055 36.2002 27.9293 36.3837C27.8531 36.5671 27.7241 36.7237 27.5586 36.8335C27.393 36.9433 27.1986 37.0013 26.9999 37.0002Z" fill="white"/>
<path d="M37 37.0002C36.8013 37.0013 36.6069 36.9433 36.4413 36.8335C36.2758 36.7237 36.1468 36.5671 36.0706 36.3837C35.9944 36.2002 35.9746 35.9983 36.0137 35.8035C36.0527 35.6088 36.1489 35.4301 36.29 35.2902L38.59 33.0002L36.29 30.7102C36.1017 30.5219 35.9959 30.2665 35.9959 30.0002C35.9959 29.7339 36.1017 29.4785 36.29 29.2902C36.4783 29.1019 36.7337 28.9961 37 28.9961C37.2663 28.9961 37.5217 29.1019 37.71 29.2902L40.71 32.2902C40.8037 32.3831 40.8781 32.4938 40.9288 32.6156C40.9796 32.7375 41.0058 32.8682 41.0058 33.0002C41.0058 33.1322 40.9796 33.2629 40.9288 33.3848C40.8781 33.5066 40.8037 33.6172 40.71 33.7102L37.71 36.7102C37.6165 36.8029 37.5057 36.8762 37.3839 36.926C37.262 36.9757 37.1316 37.0009 37 37.0002Z" fill="white"/>
<path d="M31 39C30.85 39.0031 30.7013 38.9723 30.5648 38.9101C30.4283 38.8478 30.3076 38.7557 30.2115 38.6404C30.1155 38.5252 30.0466 38.3898 30.01 38.2443C29.9734 38.0989 29.9699 37.947 30 37.8L32 27.8C32.0262 27.6687 32.0781 27.5438 32.1526 27.4326C32.2272 27.3213 32.3229 27.2258 32.4343 27.1515C32.5457 27.0772 32.6707 27.0256 32.8021 26.9996C32.9335 26.9736 33.0687 26.9738 33.2 27C33.3313 27.0263 33.4562 27.0782 33.5674 27.1527C33.6787 27.2272 33.7742 27.3229 33.8485 27.4343C33.9228 27.5458 33.9744 27.6707 34.0004 27.8021C34.0264 27.9335 34.0262 28.0687 34 28.2L32 38.2C31.9532 38.4293 31.8276 38.6349 31.6448 38.7811C31.4621 38.9273 31.2339 39.0047 31 39V39Z" fill="white"/>
<path d="M14 20H6V22H14V20Z" fill="#D9D9D9"/>
<path d="M11 24H6V26H11V24Z" fill="#D9D9D9"/>
</svg>
