<svg width="64" height="58" viewBox="0 0 64 58" fill="none" xmlns="http://www.w3.org/2000/svg">
<path d="M62 13V52H2V13C2 12.2044 2.31607 11.4413 2.87868 10.8787C3.44129 10.3161 4.20435 10 5 10H59C59.7956 10 60.5587 10.3161 61.1213 10.8787C61.6839 11.4413 62 12.2044 62 13V13Z" fill="#F0C2C5"/>
<path d="M1 52H63C63.2652 52 63.5196 52.1054 63.7071 52.2929C63.8946 52.4804 64 52.7348 64 53V55C64 55.7956 63.6839 56.5587 63.1213 57.1213C62.5587 57.6839 61.7956 58 61 58H3C2.20435 58 1.44129 57.6839 0.87868 57.1213C0.31607 56.5587 0 55.7956 0 55L0 53C0 52.7348 0.105357 52.4804 0.292893 52.2929C0.48043 52.1054 0.734784 52 1 52V52Z" fill="#AA706A"/>
<path d="M60 13V17H20L16 12H59C59.2652 12 59.5196 12.1054 59.7071 12.2929C59.8946 12.4804 60 12.7348 60 13Z" fill="#AA706A"/>
<path d="M60 17V50H4V13C4 12.7348 4.10536 12.4804 4.29289 12.2929C4.48043 12.1054 4.73478 12 5 12H19.08C19.6792 12.0004 20.2707 12.1354 20.8107 12.395C21.3507 12.6546 21.8255 13.0323 22.2 13.5C23.75 15.44 23.84 15.56 23.95 15.67C24.3276 16.0912 24.7902 16.4275 25.3073 16.6568C25.8245 16.8861 26.3843 17.003 26.95 17H60Z" fill="#F3F3F3"/>
<path d="M39 54H25C24.4696 54 23.9609 53.7893 23.5858 53.4142C23.2107 53.0391 23 52.5304 23 52H41C41 52.5304 40.7893 53.0391 40.4142 53.4142C40.0391 53.7893 39.5304 54 39 54Z" fill="#F3F3F3"/>
<path d="M33 8H56V6C56 5.46957 55.7893 4.96086 55.4142 4.58579C55.0391 4.21071 54.5304 4 54 4H33V8Z" fill="#F0C2C5"/>
<path d="M22 8H41L38 4H22V8Z" fill="#AA706A"/>
<path d="M58 10H6V12H58V10Z" fill="#AA706A"/>
<path d="M58 12V17H26.92C26.3208 16.9996 25.7293 16.8646 25.1893 16.605C24.6493 16.3454 24.1745 15.9677 23.8 15.5L22.2 13.5C21.8255 13.0323 21.3507 12.6546 20.8106 12.395C20.2706 12.1354 19.6792 12.0004 19.08 12H58Z" fill="#F0C2C5"/>
<path d="M58 17V50H6V12H19.08C19.6792 12.0004 20.2707 12.1354 20.8107 12.395C21.3507 12.6546 21.8255 13.0323 22.2 13.5L23.8 15.5C24.1745 15.9677 24.6493 16.3454 25.1893 16.605C25.7293 16.8646 26.3208 16.9996 26.92 17H58Z" fill="#D9D9D9"/>
<path d="M56 8V50H8V6C8 5.46957 8.21071 4.96086 8.58579 4.58579C8.96086 4.21071 9.46957 4 10 4H24C24.3105 4 24.6167 4.07229 24.8944 4.21115C25.1721 4.35 25.4137 4.55161 25.6 4.8L27.4 7.2C27.5863 7.44839 27.8279 7.65 28.1056 7.78885C28.3833 7.92771 28.6895 8 29 8H56Z" fill="#F3F3F3"/>
<path d="M50 27H40C38.8954 27 38 27.8954 38 29V45C38 46.1046 38.8954 47 40 47H50C51.1046 47 52 46.1046 52 45V29C52 27.8954 51.1046 27 50 27Z" fill="#AA706A"/>
<path d="M34 27H16V29H34V27Z" fill="#D9D9D9"/>
<path d="M34 31H12V33H34V31Z" fill="#D9D9D9"/>
<path d="M34 35H12V37H34V35Z" fill="#D9D9D9"/>
<path d="M34 39H12V41H34V39Z" fill="#D9D9D9"/>
<path d="M26 43H12V45H26V43Z" fill="#D9D9D9"/>
<path d="M49 45C48.8238 45.0007 48.6505 44.9549 48.4978 44.8671C48.345 44.7792 48.2181 44.6526 48.13 44.5L40.13 30.5C39.9974 30.2693 39.9619 29.9953 40.0313 29.7384C40.1007 29.4815 40.2693 29.2626 40.5 29.13C40.7308 28.9974 41.0047 28.9619 41.2617 29.0313C41.5186 29.1007 41.7374 29.2693 41.87 29.5L49.87 43.5C49.958 43.6523 50.0042 43.8251 50.004 44.001C50.0038 44.1769 49.9573 44.3496 49.869 44.5018C49.7808 44.6539 49.654 44.7801 49.5014 44.8675C49.3488 44.955 49.1759 45.0007 49 45Z" fill="#F0C2C5"/>
<path d="M41 45C40.8241 45.0007 40.6511 44.955 40.4986 44.8675C40.346 44.7801 40.2192 44.6539 40.1309 44.5018C40.0427 44.3496 39.9961 44.1769 39.996 44.001C39.9958 43.8251 40.042 43.6523 40.13 43.5L48.13 29.5C48.1956 29.3858 48.2831 29.2856 48.3875 29.2052C48.4919 29.1247 48.6111 29.0656 48.7383 29.0313C48.8655 28.9969 48.9983 28.988 49.129 29.0049C49.2596 29.0219 49.3857 29.0644 49.5 29.13C49.6142 29.1957 49.7144 29.2832 49.7948 29.3876C49.8753 29.492 49.9343 29.6112 49.9687 29.7384C50.003 29.8656 50.012 29.9984 49.9951 30.129C49.9781 30.2597 49.9356 30.3858 49.87 30.5L41.8699 44.5C41.7818 44.6526 41.655 44.7792 41.5022 44.8671C41.3494 44.9549 41.1762 45.0007 41 45Z" fill="#F0C2C5"/>
<path d="M52 11H12V23H52V11Z" fill="#F0C2C5"/>
<path d="M48.9999 20.9999C48.8599 20.9999 50.9999 21.3799 14.8299 14.9999C14.5647 14.9549 14.3283 14.8063 14.1726 14.5868C14.017 14.3674 13.9549 14.0952 13.9999 13.8299C14.045 13.5647 14.1936 13.3283 14.413 13.1726C14.6325 13.017 14.9047 12.9549 15.1699 12.9999L49.1699 18.9999C49.4352 19.0225 49.6806 19.1495 49.8522 19.3529C50.0238 19.5564 50.1075 19.8197 50.0849 20.0849C50.0624 20.3502 49.9354 20.5956 49.7319 20.7672C49.5285 20.9388 49.2652 21.0225 48.9999 20.9999V20.9999Z" fill="#AA706A"/>
<path d="M15 20.9999C14.7348 21.0225 14.4715 20.9387 14.268 20.7672C14.0645 20.5956 13.9375 20.3502 13.915 20.0849C13.8924 19.8197 13.9762 19.5564 14.1478 19.3529C14.3194 19.1495 14.5648 19.0225 14.83 18.9999L48.83 12.9999C48.9613 12.9776 49.0957 12.9814 49.2256 13.011C49.3555 13.0406 49.4782 13.0956 49.5869 13.1726C49.6955 13.2497 49.7879 13.3474 49.8588 13.4602C49.9297 13.573 49.9777 13.6986 50 13.8299C50.0223 13.9613 50.0186 14.0957 49.9889 14.2256C49.9593 14.3554 49.9044 14.4782 49.8273 14.5868C49.7502 14.6955 49.6525 14.7879 49.5397 14.8588C49.4269 14.9296 49.3013 14.9776 49.17 14.9999C12.76 21.4099 15.14 20.9999 15 20.9999Z" fill="#AA706A"/>
<path d="M11 2C11.5523 2 12 1.55228 12 1C12 0.447715 11.5523 0 11 0C10.4477 0 10 0.447715 10 1C10 1.55228 10.4477 2 11 2Z" fill="#AA706A"/>
<path d="M15 2C15.5523 2 16 1.55228 16 1C16 0.447715 15.5523 0 15 0C14.4477 0 14 0.447715 14 1C14 1.55228 14.4477 2 15 2Z" fill="#AA706A"/>
<path d="M19 2C19.5523 2 20 1.55228 20 1C20 0.447715 19.5523 0 19 0C18.4477 0 18 0.447715 18 1C18 1.55228 18.4477 2 19 2Z" fill="#AA706A"/>
</svg>
