<svg width="56" height="60" viewBox="0 0 56 60" fill="none" xmlns="http://www.w3.org/2000/svg">
<g clip-path="url(#clip0_129_9)">
<path d="M55.4297 41.911V39.0059H22.8923V31.4526H40.7879V28.5474H24.5694C24.2606 28.548 23.9599 28.6466 23.7109 28.8292C23.4618 29.0118 23.2773 29.2688 23.1838 29.5632C23.0426 30.0264 22.945 30.5019 22.8924 30.9833V20.9941H48.6317C49.633 20.9953 50.593 21.3935 51.301 22.1016C52.009 22.8096 52.4072 23.7695 52.4084 24.7708H55.3135C55.3115 22.9993 54.6069 21.3009 53.3542 20.0483C52.1016 18.7957 50.4032 18.091 48.6317 18.089H22.8923V3.52448H22.8918C22.8856 2.58831 22.5097 1.69254 21.8459 1.03235C21.1821 0.372169 20.2843 0.0010987 19.3481 0V2.90512C19.5175 2.90532 19.68 2.97272 19.7998 3.09253C19.9196 3.21235 19.987 3.3748 19.9872 3.54424V18.089H0V20.9941H1.68497V41.911H18.316C18.6254 41.9107 18.9267 41.8119 19.176 41.6287C19.4253 41.4455 19.6098 41.1876 19.7025 40.8924C19.8398 40.4357 19.9351 39.9674 19.9872 39.4933V41.911V59.3609H33.9899C34.1593 59.3611 34.3218 59.4285 34.4416 59.5483C34.5614 59.6681 34.6288 59.8306 34.629 60H37.5341C37.5331 59.0603 37.1593 58.1594 36.4949 57.495C35.8304 56.8305 34.9296 56.4568 33.9899 56.4558H22.8923V41.911H55.4297ZM4.59009 20.9941H18.305C18.6082 20.9954 18.904 20.9012 19.1507 20.7249C19.3974 20.5486 19.5823 20.2992 19.6793 20.0119C19.8301 19.5332 19.9332 19.0408 19.9873 18.5419V20.9941V28.5474H4.59009V20.9941ZM4.59009 39.0059V31.4526H19.9872V39.0059H4.59009Z" fill="white"/>
</g>
<defs>
<clipPath id="clip0_129_9">
<rect width="55.4297" height="60" fill="white"/>
</clipPath>
</defs>
</svg>
